STARTFONT 2.1
FONT -jmk-Neep-Medium-R-Normal--24-240-75-75-C-120-ISO8859-15
SIZE 24 75 75
FONTBOUNDINGBOX 12 24 0 -5

STARTPROPERTIES 29
FONTNAME_REGISTRY ""
FOUNDRY "jmk"
FAMILY_NAME "Neep"
WEIGHT_NAME "Medium"
SLANT "R"
SETWIDTH_NAME "Normal"
ADD_STYLE_NAME ""
PIXEL_SIZE 24
POINT_SIZE 240
RESOLUTION_X 75
RESOLUTION_Y 75
SPACING "C"
AVERAGE_WIDTH 120
CHARSET_REGISTRY "ISO8859"
CHARSET_ENCODING "15"
COPYRIGHT "Jim Knoble <jmknoble@pobox.com>"
WEIGHT 133
X_HEIGHT 11
FIGURE_WIDTH 12
QUAD_WIDTH 12
_XMBDFED_INFO "Edited with xmbdfed 3.7."
RELATIVE_WEIGHT 50
RELATIVE_SETWIDTH 50
CAP_HEIGHT 16
UNDERLINE_POSITION 2
UNDERLINE_THICKNESS 2
DEFAULT_CHAR 0
FONT_DESCENT 5
FONT_ASCENT 19
ENDPROPERTIES

CHARS 95

STARTCHAR U+0020
ENCODING 32
SWIDTH 480 0
DWIDTH 12 0
BBX 12 24 0 -5
BITMAP
0000
0000
0000
0000
0000
0000
0000
0000
0000
0000
0000
0000
0000
0000
0000
0000
0000
0000
0000
0000
0000
0000
0000
0000
ENDCHAR

STARTCHAR U+0021
ENCODING 33
SWIDTH 480 0
DWIDTH 12 0
BBX 12 24 0 -5
BITMAP
0000
0000
0000
0600
0600
0600
0600
0600
0600
0600
0600
0600
0600
0600
0000
0000
0600
0600
0600
0000
0000
0000
0000
0000
ENDCHAR

STARTCHAR U+0022
ENCODING 34
SWIDTH 480 0
DWIDTH 12 0
BBX 12 24 0 -5
BITMAP
0000
0000
1980
1980
1980
1980
1980
1980
0000
0000
0000
0000
0000
0000
0000
0000
0000
0000
0000
0000
0000
0000
0000
0000
ENDCHAR

STARTCHAR U+0023
ENCODING 35
SWIDTH 480 0
DWIDTH 12 0
BBX 12 24 0 -5
BITMAP
0000
0000
0000
1980
1980
1980
1980
7FE0
7FE0
1980
1980
1980
1980
7FE0
7FE0
1980
1980
1980
1980
0000
0000
0000
0000
0000
ENDCHAR

STARTCHAR U+0024
ENCODING 36
SWIDTH 480 0
DWIDTH 12 0
BBX 12 24 0 -5
BITMAP
0000
0000
0000
0600
0600
1F80
3FC0
76E0
6640
7600
3F80
1FC0
06E0
2660
76E0
3FC0
1F80
0600
0600
0000
0000
0000
0000
0000
ENDCHAR

STARTCHAR U+0025
ENCODING 37
SWIDTH 480 0
DWIDTH 12 0
BBX 12 24 0 -5
BITMAP
0000
0000
0000
3C60
7E60
66C0
66C0
7F80
3F00
0300
0600
0600
0C00
0FC0
1FE0
3660
3660
67E0
63C0
0000
0000
0000
0000
0000
ENDCHAR

STARTCHAR U+0026
ENCODING 38
SWIDTH 480 0
DWIDTH 12 0
BBX 12 24 0 -5
BITMAP
0000
0000
0000
0600
0600
0600
0600
1F80
3FC0
3080
3000
1E00
1E00
3000
3080
3FC0
1F80
0600
0600
0600
0600
0000
0000
0000
ENDCHAR

STARTCHAR U+0027
ENCODING 39
SWIDTH 480 0
DWIDTH 12 0
BBX 12 24 0 -5
BITMAP
0000
0000
0C00
0C00
0C00
0C00
0C00
0C00
0000
0000
0000
0000
0000
0000
0000
0000
0000
0000
0000
0000
0000
0000
0000
0000
ENDCHAR

STARTCHAR U+0028
ENCODING 40
SWIDTH 480 0
DWIDTH 12 0
BBX 12 24 0 -5
BITMAP
0000
0000
00C0
0180
0300
0600
0600
0C00
0C00
1800
1800
1800
1800
1800
1800
0C00
0C00
0600
0600
0300
0180
00C0
0000
0000
ENDCHAR

STARTCHAR U+0029
ENCODING 41
SWIDTH 480 0
DWIDTH 12 0
BBX 12 24 0 -5
BITMAP
0000
0000
3000
1800
0C00
0600
0600
0300
0300
0180
0180
0180
0180
0180
0180
0300
0300
0600
0600
0C00
1800
3000
0000
0000
ENDCHAR

STARTCHAR U+002a
ENCODING 42
SWIDTH 480 0
DWIDTH 12 0
BBX 12 24 0 -5
BITMAP
0000
0000
0000
0000
0000
0000
1100
3180
1B00
0E00
7FC0
7FC0
0E00
1B00
3180
1100
0000
0000
0000
0000
0000
0000
0000
0000
ENDCHAR

STARTCHAR U+002b
ENCODING 43
SWIDTH 480 0
DWIDTH 12 0
BBX 12 24 0 -5
BITMAP
0000
0000
0000
0000
0000
0000
0600
0600
0600
0600
7FE0
7FE0
0600
0600
0600
0600
0000
0000
0000
0000
0000
0000
0000
0000
ENDCHAR

STARTCHAR U+002c
ENCODING 44
SWIDTH 480 0
DWIDTH 12 0
BBX 12 24 0 -5
BITMAP
0000
0000
0000
0000
0000
0000
0000
0000
0000
0000
0000
0000
0000
0000
0000
0000
0F00
0E00
1C00
1800
3000
2000
0000
0000
ENDCHAR

STARTCHAR U+002d
ENCODING 45
SWIDTH 480 0
DWIDTH 12 0
BBX 12 24 0 -5
BITMAP
0000
0000
0000
0000
0000
0000
0000
0000
0000
0000
7FC0
7FC0
0000
0000
0000
0000
0000
0000
0000
0000
0000
0000
0000
0000
ENDCHAR

STARTCHAR U+002e
ENCODING 46
SWIDTH 480 0
DWIDTH 12 0
BBX 12 24 0 -5
BITMAP
0000
0000
0000
0000
0000
0000
0000
0000
0000
0000
0000
0000
0000
0000
0000
0000
0600
0F00
0F00
0600
0000
0000
0000
0000
ENDCHAR

STARTCHAR U+002f
ENCODING 47
SWIDTH 480 0
DWIDTH 12 0
BBX 12 24 0 -5
BITMAP
0000
0000
0020
0060
0060
00C0
00C0
0180
0180
0300
0300
0600
0600
0C00
0C00
1800
1800
3000
3000
6000
6000
4000
0000
0000
ENDCHAR

STARTCHAR U+0030
ENCODING 48
SWIDTH 480 0
DWIDTH 12 0
BBX 12 24 0 -5
BITMAP
0000
0000
0000
0F00
1F80
30C0
30C0
6060
6060
6060
6660
6660
6060
6060
6060
30C0
30C0
1F80
0F00
0000
0000
0000
0000
0000
ENDCHAR

STARTCHAR U+0031
ENCODING 49
SWIDTH 480 0
DWIDTH 12 0
BBX 12 24 0 -5
BITMAP
0000
0000
0000
0200
0600
0E00
1E00
3600
6600
0600
0600
0600
0600
0600
0600
0600
0600
0600
0600
0000
0000
0000
0000
0000
ENDCHAR

STARTCHAR U+0032
ENCODING 50
SWIDTH 480 0
DWIDTH 12 0
BBX 12 24 0 -5
BITMAP
0000
0000
0000
1F80
3FC0
70E0
2060
0060
0060
00C0
0180
0300
0600
0C00
1800
3000
6000
7FE0
7FE0
0000
0000
0000
0000
0000
ENDCHAR

STARTCHAR U+0033
ENCODING 51
SWIDTH 480 0
DWIDTH 12 0
BBX 12 24 0 -5
BITMAP
0000
0000
0000
1F80
3FC0
70E0
2060
0060
0060
00E0
07C0
07C0
00E0
0060
0060
2060
70E0
3FC0
1F80
0000
0000
0000
0000
0000
ENDCHAR

STARTCHAR U+0034
ENCODING 52
SWIDTH 480 0
DWIDTH 12 0
BBX 12 24 0 -5
BITMAP
0000
0000
0000
0780
0780
0D80
0D80
1980
1980
3180
3180
6180
6180
7FE0
7FE0
0180
0180
0180
0180
0000
0000
0000
0000
0000
ENDCHAR

STARTCHAR U+0035
ENCODING 53
SWIDTH 480 0
DWIDTH 12 0
BBX 12 24 0 -5
BITMAP
0000
0000
0000
7FC0
7FC0
6000
6000
6000
6F80
7FC0
70E0
6060
0060
0060
0060
2060
70E0
3FC0
1F80
0000
0000
0000
0000
0000
ENDCHAR

STARTCHAR U+0036
ENCODING 54
SWIDTH 480 0
DWIDTH 12 0
BBX 12 24 0 -5
BITMAP
0000
0000
0000
1F80
3FC0
70E0
6040
6000
6000
6F80
7FC0
70E0
6060
6060
6060
6060
70E0
3FC0
1F80
0000
0000
0000
0000
0000
ENDCHAR

STARTCHAR U+0037
ENCODING 55
SWIDTH 480 0
DWIDTH 12 0
BBX 12 24 0 -5
BITMAP
0000
0000
0000
7FE0
7FE0
0060
0060
00C0
00C0
0180
0180
0300
0300
0600
0600
0C00
0C00
1800
1800
0000
0000
0000
0000
0000
ENDCHAR

STARTCHAR U+0038
ENCODING 56
SWIDTH 480 0
DWIDTH 12 0
BBX 12 24 0 -5
BITMAP
0000
0000
0000
1F80
3FC0
70E0
6060
6060
6060
70E0
3FC0
3FC0
70E0
6060
6060
6060
70E0
3FC0
1F80
0000
0000
0000
0000
0000
ENDCHAR

STARTCHAR U+0039
ENCODING 57
SWIDTH 480 0
DWIDTH 12 0
BBX 12 24 0 -5
BITMAP
0000
0000
0000
1F80
3FC0
70E0
6060
6060
6060
6060
70E0
3FE0
1F60
0060
0060
2060
70E0
3FC0
1F80
0000
0000
0000
0000
0000
ENDCHAR

STARTCHAR U+003a
ENCODING 58
SWIDTH 480 0
DWIDTH 12 0
BBX 12 24 0 -5
BITMAP
0000
0000
0000
0000
0000
0000
0000
0600
0F00
0F00
0600
0000
0000
0000
0000
0000
0600
0F00
0F00
0600
0000
0000
0000
0000
ENDCHAR

STARTCHAR U+003b
ENCODING 59
SWIDTH 480 0
DWIDTH 12 0
BBX 12 24 0 -5
BITMAP
0000
0000
0000
0000
0000
0000
0000
0600
0F00
0F00
0600
0000
0000
0000
0000
0000
0E00
0E00
1C00
1800
3000
2000
0000
0000
ENDCHAR

STARTCHAR U+003c
ENCODING 60
SWIDTH 480 0
DWIDTH 12 0
BBX 12 24 0 -5
BITMAP
0000
0000
0000
0000
0040
00C0
0180
0300
0600
0C00
1800
3000
1800
0C00
0600
0300
0180
00C0
0040
0000
0000
0000
0000
0000
ENDCHAR

STARTCHAR U+003d
ENCODING 61
SWIDTH 480 0
DWIDTH 12 0
BBX 12 24 0 -5
BITMAP
0000
0000
0000
0000
0000
0000
0000
0000
7FC0
7FC0
0000
0000
0000
7FC0
7FC0
0000
0000
0000
0000
0000
0000
0000
0000
0000
ENDCHAR

STARTCHAR U+003e
ENCODING 62
SWIDTH 480 0
DWIDTH 12 0
BBX 12 24 0 -5
BITMAP
0000
0000
0000
0000
2000
3000
1800
0C00
0600
0300
0180
00C0
0180
0300
0600
0C00
1800
3000
2000
0000
0000
0000
0000
0000
ENDCHAR

STARTCHAR U+003f
ENCODING 63
SWIDTH 480 0
DWIDTH 12 0
BBX 12 24 0 -5
BITMAP
0000
0000
0000
3F80
3FC0
00C0
00C0
0180
0300
0600
0C00
0C00
0C00
0C00
0000
0000
0C00
0C00
0C00
0000
0000
0000
0000
0000
ENDCHAR

STARTCHAR U+0040
ENCODING 64
SWIDTH 480 0
DWIDTH 12 0
BBX 12 24 0 -5
BITMAP
0000
0000
0000
0F80
1FC0
38E0
7060
61E0
63E0
6760
6660
6660
6760
63E0
61E0
7000
3800
1FC0
0FC0
0000
0000
0000
0000
0000
ENDCHAR

STARTCHAR U+0041
ENCODING 65
SWIDTH 480 0
DWIDTH 12 0
BBX 12 24 0 -5
BITMAP
0000
0000
0000
1F80
3FC0
70E0
6060
6060
6060
6060
7FE0
7FE0
6060
6060
6060
6060
6060
6060
6060
0000
0000
0000
0000
0000
ENDCHAR

STARTCHAR U+0042
ENCODING 66
SWIDTH 480 0
DWIDTH 12 0
BBX 12 24 0 -5
BITMAP
0000
0000
0000
7E00
7F00
6380
6180
6180
6180
6180
7F00
7F80
60C0
6060
6060
6060
60E0
7FC0
7F80
0000
0000
0000
0000
0000
ENDCHAR

STARTCHAR U+0043
ENCODING 67
SWIDTH 480 0
DWIDTH 12 0
BBX 12 24 0 -5
BITMAP
0000
0000
0000
1F80
3FC0
70E0
6040
6000
6000
6000
6000
6000
6000
6000
6000
6040
70E0
3FC0
1F80
0000
0000
0000
0000
0000
ENDCHAR

STARTCHAR U+0044
ENCODING 68
SWIDTH 480 0
DWIDTH 12 0
BBX 12 24 0 -5
BITMAP
0000
0000
0000
7E00
7F00
6180
60C0
6060
6060
6060
6060
6060
6060
6060
6060
60C0
6180
7F00
7E00
0000
0000
0000
0000
0000
ENDCHAR

STARTCHAR U+0045
ENCODING 69
SWIDTH 480 0
DWIDTH 12 0
BBX 12 24 0 -5
BITMAP
0000
0000
0000
7FE0
7FE0
6000
6000
6000
6000
6000
7F80
7F80
6000
6000
6000
6000
6000
7FE0
7FE0
0000
0000
0000
0000
0000
ENDCHAR

STARTCHAR U+0046
ENCODING 70
SWIDTH 480 0
DWIDTH 12 0
BBX 12 24 0 -5
BITMAP
0000
0000
0000
7FE0
7FE0
6000
6000
6000
6000
6000
7F80
7F80
6000
6000
6000
6000
6000
6000
6000
0000
0000
0000
0000
0000
ENDCHAR

STARTCHAR U+0047
ENCODING 71
SWIDTH 480 0
DWIDTH 12 0
BBX 12 24 0 -5
BITMAP
0000
0000
0000
1F80
3FC0
70E0
6040
6000
6000
6000
63E0
63E0
6060
6060
6060
6060
70E0
3FC0
1F80
0000
0000
0000
0000
0000
ENDCHAR

STARTCHAR U+0048
ENCODING 72
SWIDTH 480 0
DWIDTH 12 0
BBX 12 24 0 -5
BITMAP
0000
0000
0000
6060
6060
6060
6060
6060
6060
6060
7FE0
7FE0
6060
6060
6060
6060
6060
6060
6060
0000
0000
0000
0000
0000
ENDCHAR

STARTCHAR U+0049
ENCODING 73
SWIDTH 480 0
DWIDTH 12 0
BBX 12 24 0 -5
BITMAP
0000
0000
0000
3FC0
3FC0
0600
0600
0600
0600
0600
0600
0600
0600
0600
0600
0600
0600
3FC0
3FC0
0000
0000
0000
0000
0000
ENDCHAR

STARTCHAR U+004a
ENCODING 74
SWIDTH 480 0
DWIDTH 12 0
BBX 12 24 0 -5
BITMAP
0000
0000
0000
07E0
07E0
0060
0060
0060
0060
0060
0060
0060
0060
0060
0060
2060
70E0
3FC0
1F80
0000
0000
0000
0000
0000
ENDCHAR

STARTCHAR U+004b
ENCODING 75
SWIDTH 480 0
DWIDTH 12 0
BBX 12 24 0 -5
BITMAP
0000
0000
0000
6060
60C0
6180
6300
6600
6C00
7E00
7600
6300
6300
6180
6180
60C0
60C0
6060
6060
0000
0000
0000
0000
0000
ENDCHAR

STARTCHAR U+004c
ENCODING 76
SWIDTH 480 0
DWIDTH 12 0
BBX 12 24 0 -5
BITMAP
0000
0000
0000
6000
6000
6000
6000
6000
6000
6000
6000
6000
6000
6000
6000
6000
6000
7FE0
7FE0
0000
0000
0000
0000
0000
ENDCHAR

STARTCHAR U+004d
ENCODING 77
SWIDTH 480 0
DWIDTH 12 0
BBX 12 24 0 -5
BITMAP
0000
0000
0000
6060
6060
70E0
70E0
79E0
6960
6F60
6660
6660
6060
6060
6060
6060
6060
6060
6060
0000
0000
0000
0000
0000
ENDCHAR

STARTCHAR U+004e
ENCODING 78
SWIDTH 480 0
DWIDTH 12 0
BBX 12 24 0 -5
BITMAP
0000
0000
0000
6060
7060
7060
7860
6860
6C60
6460
6660
6260
6360
6160
61E0
60E0
60E0
6060
6060
0000
0000
0000
0000
0000
ENDCHAR

STARTCHAR U+004f
ENCODING 79
SWIDTH 480 0
DWIDTH 12 0
BBX 12 24 0 -5
BITMAP
0000
0000
0000
1F80
3FC0
70E0
6060
6060
6060
6060
6060
6060
6060
6060
6060
6060
70E0
3FC0
1F80
0000
0000
0000
0000
0000
ENDCHAR

STARTCHAR U+0050
ENCODING 80
SWIDTH 480 0
DWIDTH 12 0
BBX 12 24 0 -5
BITMAP
0000
0000
0000
7F80
7FC0
60E0
6060
6060
6060
60E0
7FC0
7F80
6000
6000
6000
6000
6000
6000
6000
0000
0000
0000
0000
0000
ENDCHAR

STARTCHAR U+0051
ENCODING 81
SWIDTH 480 0
DWIDTH 12 0
BBX 12 24 0 -5
BITMAP
0000
0000
0000
1F80
3FC0
70E0
6060
6060
6060
6060
6060
6060
6060
6060
6660
6660
76E0
3FC0
1F80
0380
01E0
00E0
0000
0000
ENDCHAR

STARTCHAR U+0052
ENCODING 82
SWIDTH 480 0
DWIDTH 12 0
BBX 12 24 0 -5
BITMAP
0000
0000
0000
7F80
7FC0
60E0
6060
6060
6060
60E0
7FC0
7F80
7C00
6E00
6700
6380
61C0
60E0
6060
0000
0000
0000
0000
0000
ENDCHAR

STARTCHAR U+0053
ENCODING 83
SWIDTH 480 0
DWIDTH 12 0
BBX 12 24 0 -5
BITMAP
0000
0000
0000
1F80
3FC0
70E0
6040
6000
7000
3C00
1F00
0780
01C0
00E0
0060
2060
70E0
3FC0
1F80
0000
0000
0000
0000
0000
ENDCHAR

STARTCHAR U+0054
ENCODING 84
SWIDTH 480 0
DWIDTH 12 0
BBX 12 24 0 -5
BITMAP
0000
0000
0000
7FE0
7FE0
0600
0600
0600
0600
0600
0600
0600
0600
0600
0600
0600
0600
0600
0600
0000
0000
0000
0000
0000
ENDCHAR

STARTCHAR U+0055
ENCODING 85
SWIDTH 480 0
DWIDTH 12 0
BBX 12 24 0 -5
BITMAP
0000
0000
0000
6060
6060
6060
6060
6060
6060
6060
6060
6060
6060
6060
6060
6060
70E0
3FC0
1F80
0000
0000
0000
0000
0000
ENDCHAR

STARTCHAR U+0056
ENCODING 86
SWIDTH 480 0
DWIDTH 12 0
BBX 12 24 0 -5
BITMAP
0000
0000
0000
6060
6060
6060
6060
6060
6060
6060
6060
30C0
30C0
1980
1980
0F00
0F00
0600
0600
0000
0000
0000
0000
0000
ENDCHAR

STARTCHAR U+0057
ENCODING 87
SWIDTH 480 0
DWIDTH 12 0
BBX 12 24 0 -5
BITMAP
0000
0000
0000
6060
6060
6060
6060
6060
6060
6060
6060
6060
6660
6660
6F60
6960
79E0
30C0
30C0
0000
0000
0000
0000
0000
ENDCHAR

STARTCHAR U+0058
ENCODING 88
SWIDTH 480 0
DWIDTH 12 0
BBX 12 24 0 -5
BITMAP
0000
0000
0000
6060
6060
30C0
30C0
1980
1980
0F00
0F00
0F00
0F00
1980
1980
30C0
30C0
6060
6060
0000
0000
0000
0000
0000
ENDCHAR

STARTCHAR U+0059
ENCODING 89
SWIDTH 480 0
DWIDTH 12 0
BBX 12 24 0 -5
BITMAP
0000
0000
0000
6060
6060
6060
6060
6060
6060
70E0
3FC0
1F80
0600
0600
0600
0600
0600
0600
0600
0000
0000
0000
0000
0000
ENDCHAR

STARTCHAR U+005a
ENCODING 90
SWIDTH 480 0
DWIDTH 12 0
BBX 12 24 0 -5
BITMAP
0000
0000
0000
7FE0
7FE0
0060
00C0
00C0
0180
0300
0600
0600
0C00
1800
3000
3000
6000
7FE0
7FE0
0000
0000
0000
0000
0000
ENDCHAR

STARTCHAR U+005b
ENCODING 91
SWIDTH 480 0
DWIDTH 12 0
BBX 12 24 0 -5
BITMAP
0000
0000
1FC0
1FC0
1800
1800
1800
1800
1800
1800
1800
1800
1800
1800
1800
1800
1800
1800
1800
1800
1FC0
1FC0
0000
0000
ENDCHAR

STARTCHAR U+005c
ENCODING 92
SWIDTH 480 0
DWIDTH 12 0
BBX 12 24 0 -5
BITMAP
0000
0000
4000
6000
6000
3000
3000
1800
1800
0C00
0C00
0600
0600
0300
0300
0180
0180
00C0
00C0
0060
0060
0020
0000
0000
ENDCHAR

STARTCHAR U+005d
ENCODING 93
SWIDTH 480 0
DWIDTH 12 0
BBX 12 24 0 -5
BITMAP
0000
0000
3F80
3F80
0180
0180
0180
0180
0180
0180
0180
0180
0180
0180
0180
0180
0180
0180
0180
0180
3F80
3F80
0000
0000
ENDCHAR

STARTCHAR U+005e
ENCODING 94
SWIDTH 480 0
DWIDTH 12 0
BBX 12 24 0 -5
BITMAP
0000
0000
0000
0600
0600
0F00
0F00
1980
1980
30C0
30C0
0000
0000
0000
0000
0000
0000
0000
0000
0000
0000
0000
0000
0000
ENDCHAR

STARTCHAR U+005f
ENCODING 95
SWIDTH 480 0
DWIDTH 12 0
BBX 12 24 0 -5
BITMAP
0000
0000
0000
0000
0000
0000
0000
0000
0000
0000
0000
0000
0000
0000
0000
0000
0000
0000
0000
0000
0000
7FE0
7FE0
0000
ENDCHAR

STARTCHAR U+0060
ENCODING 96
SWIDTH 480 0
DWIDTH 12 0
BBX 12 24 0 -5
BITMAP
0000
0000
1C00
1C00
0E00
0600
0300
0100
0000
0000
0000
0000
0000
0000
0000
0000
0000
0000
0000
0000
0000
0000
0000
0000
ENDCHAR

STARTCHAR U+0061
ENCODING 97
SWIDTH 480 0
DWIDTH 12 0
BBX 12 24 0 -5
BITMAP
0000
0000
0000
0000
0000
0000
0000
0000
1F80
1FC0
00E0
0060
1FE0
3FE0
7060
60E0
71E0
3F60
1E60
0000
0000
0000
0000
0000
ENDCHAR

STARTCHAR U+0062
ENCODING 98
SWIDTH 480 0
DWIDTH 12 0
BBX 12 24 0 -5
BITMAP
0000
0000
0000
6000
6000
6000
6000
6000
6780
6FC0
78E0
7060
6060
6060
6060
7060
78E0
6FC0
6780
0000
0000
0000
0000
0000
ENDCHAR

STARTCHAR U+0063
ENCODING 99
SWIDTH 480 0
DWIDTH 12 0
BBX 12 24 0 -5
BITMAP
0000
0000
0000
0000
0000
0000
0000
0000
1F80
3FC0
70E0
6040
6000
6000
6000
6040
70E0
3FC0
1F80
0000
0000
0000
0000
0000
ENDCHAR

STARTCHAR U+0064
ENCODING 100
SWIDTH 480 0
DWIDTH 12 0
BBX 12 24 0 -5
BITMAP
0000
0000
0000
0060
0060
0060
0060
0060
1E60
3F60
71E0
60E0
6060
6060
6060
60E0
71E0
3F60
1E60
0000
0000
0000
0000
0000
ENDCHAR

STARTCHAR U+0065
ENCODING 101
SWIDTH 480 0
DWIDTH 12 0
BBX 12 24 0 -5
BITMAP
0000
0000
0000
0000
0000
0000
0000
0000
1F80
3FC0
70E0
6060
7FE0
7FE0
6000
6040
70E0
3FC0
1F80
0000
0000
0000
0000
0000
ENDCHAR

STARTCHAR U+0066
ENCODING 102
SWIDTH 480 0
DWIDTH 12 0
BBX 12 24 0 -5
BITMAP
0000
0000
0000
0780
0FC0
1CE0
1840
1800
1800
1800
7FC0
7FC0
1800
1800
1800
1800
1800
1800
1800
0000
0000
0000
0000
0000
ENDCHAR

STARTCHAR U+0067
ENCODING 103
SWIDTH 480 0
DWIDTH 12 0
BBX 12 24 0 -5
BITMAP
0000
0000
0000
0000
0000
0000
0000
0000
1E60
3F60
71E0
60E0
6060
6060
60E0
71E0
3F60
1E60
0060
0060
2060
70E0
3FC0
1F80
ENDCHAR

STARTCHAR U+0068
ENCODING 104
SWIDTH 480 0
DWIDTH 12 0
BBX 12 24 0 -5
BITMAP
0000
0000
0000
6000
6000
6000
6000
6000
6780
6FC0
78E0
7060
6060
6060
6060
6060
6060
6060
6060
0000
0000
0000
0000
0000
ENDCHAR

STARTCHAR U+0069
ENCODING 105
SWIDTH 480 0
DWIDTH 12 0
BBX 12 24 0 -5
BITMAP
0000
0000
0000
0300
0300
0300
0000
0000
1F00
1F00
0300
0300
0300
0300
0300
0300
0300
0300
0300
0000
0000
0000
0000
0000
ENDCHAR

STARTCHAR U+006a
ENCODING 106
SWIDTH 480 0
DWIDTH 12 0
BBX 12 24 0 -5
BITMAP
0000
0000
0000
0180
0180
0180
0000
0000
0F80
0F80
0180
0180
0180
0180
0180
0180
0180
0180
0180
0180
2180
7380
3F00
1E00
ENDCHAR

STARTCHAR U+006b
ENCODING 107
SWIDTH 480 0
DWIDTH 12 0
BBX 12 24 0 -5
BITMAP
0000
0000
0000
6000
6000
6000
6000
6000
60C0
6180
6300
6600
6C00
7C00
7600
6300
6180
60C0
6060
0000
0000
0000
0000
0000
ENDCHAR

STARTCHAR U+006c
ENCODING 108
SWIDTH 480 0
DWIDTH 12 0
BBX 12 24 0 -5
BITMAP
0000
0000
0000
0C00
0C00
0C00
0C00
0C00
0C00
0C00
0C00
0C00
0C00
0C00
0C00
0C00
0E00
07C0
03C0
0000
0000
0000
0000
0000
ENDCHAR

STARTCHAR U+006d
ENCODING 109
SWIDTH 480 0
DWIDTH 12 0
BBX 12 24 0 -5
BITMAP
0000
0000
0000
0000
0000
0000
0000
0000
6CC0
7FE0
7760
6660
6660
6660
6660
6660
6660
6660
6060
0000
0000
0000
0000
0000
ENDCHAR

STARTCHAR U+006e
ENCODING 110
SWIDTH 480 0
DWIDTH 12 0
BBX 12 24 0 -5
BITMAP
0000
0000
0000
0000
0000
0000
0000
0000
6780
6FC0
78E0
7060
6060
6060
6060
6060
6060
6060
6060
0000
0000
0000
0000
0000
ENDCHAR

STARTCHAR U+006f
ENCODING 111
SWIDTH 480 0
DWIDTH 12 0
BBX 12 24 0 -5
BITMAP
0000
0000
0000
0000
0000
0000
0000
0000
1F80
3FC0
70E0
6060
6060
6060
6060
6060
70E0
3FC0
1F80
0000
0000
0000
0000
0000
ENDCHAR

STARTCHAR U+0070
ENCODING 112
SWIDTH 480 0
DWIDTH 12 0
BBX 12 24 0 -5
BITMAP
0000
0000
0000
0000
0000
0000
0000
0000
6780
6FC0
78E0
7060
6060
6060
7060
78E0
6FC0
6780
6000
6000
6000
6000
6000
6000
ENDCHAR

STARTCHAR U+0071
ENCODING 113
SWIDTH 480 0
DWIDTH 12 0
BBX 12 24 0 -5
BITMAP
0000
0000
0000
0000
0000
0000
0000
0000
1E60
3F60
71E0
60E0
6060
6060
60E0
71E0
3F60
1E60
0060
0060
0060
0060
0060
0060
ENDCHAR

STARTCHAR U+0072
ENCODING 114
SWIDTH 480 0
DWIDTH 12 0
BBX 12 24 0 -5
BITMAP
0000
0000
0000
0000
0000
0000
0000
0000
6780
6FC0
78E0
7040
6000
6000
6000
6000
6000
6000
6000
0000
0000
0000
0000
0000
ENDCHAR

STARTCHAR U+0073
ENCODING 115
SWIDTH 480 0
DWIDTH 12 0
BBX 12 24 0 -5
BITMAP
0000
0000
0000
0000
0000
0000
0000
0000
1F80
3FC0
60E0
7840
3F00
0FC0
01E0
2060
70E0
3FC0
1F80
0000
0000
0000
0000
0000
ENDCHAR

STARTCHAR U+0074
ENCODING 116
SWIDTH 480 0
DWIDTH 12 0
BBX 12 24 0 -5
BITMAP
0000
0000
0000
0000
0000
1800
1800
1800
7FC0
7FC0
1800
1800
1800
1800
1800
1840
1CE0
0FC0
0780
0000
0000
0000
0000
0000
ENDCHAR

STARTCHAR U+0075
ENCODING 117
SWIDTH 480 0
DWIDTH 12 0
BBX 12 24 0 -5
BITMAP
0000
0000
0000
0000
0000
0000
0000
0000
6060
6060
6060
6060
6060
6060
6060
60E0
71E0
3F60
1E60
0000
0000
0000
0000
0000
ENDCHAR

STARTCHAR U+0076
ENCODING 118
SWIDTH 480 0
DWIDTH 12 0
BBX 12 24 0 -5
BITMAP
0000
0000
0000
0000
0000
0000
0000
0000
6060
6060
6060
30C0
30C0
30C0
1980
1980
0F00
0F00
0600
0000
0000
0000
0000
0000
ENDCHAR

STARTCHAR U+0077
ENCODING 119
SWIDTH 480 0
DWIDTH 12 0
BBX 12 24 0 -5
BITMAP
0000
0000
0000
0000
0000
0000
0000
0000
6060
6060
6060
6060
6660
6660
6F60
6960
79E0
30C0
30C0
0000
0000
0000
0000
0000
ENDCHAR

STARTCHAR U+0078
ENCODING 120
SWIDTH 480 0
DWIDTH 12 0
BBX 12 24 0 -5
BITMAP
0000
0000
0000
0000
0000
0000
0000
0000
6060
6060
30C0
1980
0F00
0600
0F00
1980
30C0
6060
6060
0000
0000
0000
0000
0000
ENDCHAR

STARTCHAR U+0079
ENCODING 121
SWIDTH 480 0
DWIDTH 12 0
BBX 12 24 0 -5
BITMAP
0000
0000
0000
0000
0000
0000
0000
0000
6060
6060
6060
6060
6060
6060
60E0
71E0
3F60
1E60
0060
0060
2060
70E0
3FC0
1F80
ENDCHAR

STARTCHAR U+007a
ENCODING 122
SWIDTH 480 0
DWIDTH 12 0
BBX 12 24 0 -5
BITMAP
0000
0000
0000
0000
0000
0000
0000
0000
7FE0
7FE0
00C0
0180
0300
0600
0C00
1800
3000
7FE0
7FE0
0000
0000
0000
0000
0000
ENDCHAR

STARTCHAR U+007b
ENCODING 123
SWIDTH 480 0
DWIDTH 12 0
BBX 12 24 0 -5
BITMAP
0000
0000
01C0
03C0
0700
0600
0600
0600
0600
0600
0E00
3C00
3C00
0E00
0600
0600
0600
0600
0600
0700
03C0
01C0
0000
0000
ENDCHAR

STARTCHAR U+007c
ENCODING 124
SWIDTH 480 0
DWIDTH 12 0
BBX 12 24 0 -5
BITMAP
0000
0000
0600
0600
0600
0600
0600
0600
0600
0600
0600
0600
0600
0600
0600
0600
0600
0600
0600
0600
0600
0600
0000
0000
ENDCHAR

STARTCHAR U+007d
ENCODING 125
SWIDTH 480 0
DWIDTH 12 0
BBX 12 24 0 -5
BITMAP
0000
0000
3800
3C00
0E00
0600
0600
0600
0600
0600
0700
03C0
03C0
0700
0600
0600
0600
0600
0600
0E00
3C00
3800
0000
0000
ENDCHAR

STARTCHAR U+007e
ENCODING 126
SWIDTH 480 0
DWIDTH 12 0
BBX 12 24 0 -5
BITMAP
0000
0000
0000
0000
3860
7C60
6660
6660
63E0
61C0
0000
0000
0000
0000
0000
0000
0000
0000
0000
0000
0000
0000
0000
0000
ENDCHAR

ENDFONT
